<svg height="128" xmlns="http://www.w3.org/2000/svg" id="轮廓_复制" viewBox="0 0 256 256" width="128" style="font-size: 128px;">
    <defs>
        <style>.cls-1{fill:#152d7a;}.cls-2{fill:#ce2454;}</style>
    </defs>
    <g transform="matrix(1.2307692,0,0,1.2307692,-29.538462,-29.538462)">
        <g transform="matrix(0.23214249,0,0,0.23214249,13.786197,9.1432109)">
            <path d="M505.64,848a24,24,0,0,1-24-24V767.18a24,24,0,0,1,48,0V824A24,24,0,0,1,505.64,848Z" class="cls-1"></path>
            <path d="M453.67,773.49a383.42,383.42,0,0,1-272-112.66,24,24,0,0,1,33.94-33.94A336.64,336.64,0,1,0,691.71,150.81a24,24,0,1,1,33.95-33.94,384.52,384.52,0,0,1-272,656.62Z" class="cls-2"></path>
            <path d="M160,704a24,24,0,0,1-17.2-40.74l109-112a24,24,0,1,1,34.4,33.48l-109,112A23.94,23.94,0,0,1,160,704Z" class="cls-2"></path>
            <path d="M627,224a24,24,0,0,1-17.19-40.74l109-112a24,24,0,1,1,34.4,33.48l-109,112A24,24,0,0,1,627,224Z" class="cls-2"></path>
            <path d="M445.64,663.18c-23,0-55.3-15.72-78.81-90.63-15.64-49.85-24.25-115.69-24.25-185.37s8.61-135.52,24.25-185.38c23.51-74.9,55.83-90.62,78.81-90.62S501,126.9,524.45,201.8c15.64,49.86,24.26,115.7,24.26,185.38s-8.62,135.52-24.26,185.37C501,647.46,468.62,663.18,445.64,663.18Zm0-504c-3,0-18.31,10.14-33,57-14.22,45.34-22.05,106.07-22.05,171s7.83,125.67,22.05,171c14.7,46.85,30,57,33,57s18.31-10.14,33-57c14.23-45.34,22.06-106.07,22.06-171s-7.83-125.67-22.06-171C464,169.32,448.64,159.18,445.64,159.18Z" class="cls-1"></path>
            <rect height="48" y="363.18" class="cls-1" width="504" x="193.64"></rect>
            <path d="M776,960H248a72,72,0,0,1,0-144H776a72,72,0,0,1,0,144ZM248,864a24,24,0,0,0,0,48H776a24,24,0,0,0,0-48Z" class="cls-1"></path>
            <path d="M445.64,663.18A276,276,0,1,1,640.8,582.34,274.19,274.19,0,0,1,445.64,663.18Zm0-504A228,228,0,1,0,606.86,226,226.53,226.53,0,0,0,445.64,159.18Z" class="cls-1"></path>
        </g>
    </g>
</svg>